<svg width="632" height="384" viewBox="0 0 632 384" fill="none" xmlns="http://www.w3.org/2000/svg">
<g clip-path="url(#clip0_70_407)">
<rect width="632" height="384" fill="#43534D"/>
<path d="M518.5 203C518.5 244.111 495.991 281.451 459.357 308.567C422.724 335.683 372.044 352.5 316 352.5C259.956 352.5 209.276 335.683 172.643 308.567C136.009 281.451 113.5 244.111 113.5 203C113.5 161.889 136.009 124.549 172.643 97.4325C209.276 70.3167 259.956 53.5 316 53.5C372.044 53.5 422.724 70.3167 459.357 97.4325C495.991 124.549 518.5 161.889 518.5 203Z" stroke="white" stroke-width="3"/>
<g clip-path="url(#clip1_70_407)">
<path d="M315.071 69.904L208.665 123.25C206.884 124.143 205.344 125.422 204.153 126.995C202.962 128.568 202.15 130.398 201.774 132.354L179.327 249.249C178.84 251.775 179.1 254.421 180.076 256.876C181.053 259.331 182.706 261.494 184.842 263.11C186.978 264.727 189.508 265.731 192.136 266.004C194.764 266.277 197.381 265.809 199.68 264.653L306.087 211.307C307.867 210.414 309.407 209.135 310.598 207.562C311.788 205.988 312.601 204.159 312.978 202.203L335.424 85.3089C335.908 82.7829 335.645 80.139 334.667 77.6861C333.689 75.2331 332.037 73.0726 329.902 71.457C327.767 69.8413 325.239 68.8373 322.613 68.5623C319.987 68.2873 317.371 68.7527 315.071 69.904ZM286.93 189.648L212.016 227.215L227.821 144.909L302.735 107.342L286.938 189.654L286.93 189.648Z" fill="black"/>
<path d="M366.337 100.626C362.725 99.7906 358.992 100.39 355.959 102.293C352.927 104.197 350.843 107.248 350.165 110.775L328.918 221.428L228.2 271.931C224.988 273.541 222.617 276.375 221.609 279.811C220.601 283.246 221.038 287.002 222.824 290.251C224.61 293.5 227.598 295.977 231.132 297.136C234.666 298.296 238.456 298.043 241.667 296.433L348.074 243.087C349.854 242.194 351.394 240.915 352.585 239.342C353.776 237.768 354.588 235.939 354.965 233.983L377.411 117.089C377.747 115.342 377.727 113.53 377.353 111.757C376.979 109.985 376.257 108.285 375.229 106.757C374.201 105.229 372.888 103.901 371.363 102.85C369.838 101.799 368.125 101.04 366.337 100.626Z" fill="black"/>
<path d="M408.317 132.401C404.705 131.565 400.972 132.165 397.94 134.068C394.907 135.971 392.823 139.022 392.145 142.55L370.89 253.197L270.173 303.7C266.961 305.31 264.59 308.144 263.582 311.579C262.574 315.015 263.01 318.77 264.796 322.02C266.582 325.269 269.571 327.745 273.105 328.905C276.639 330.064 280.428 329.811 283.64 328.202L390.047 274.856C391.827 273.963 393.367 272.684 394.557 271.11C395.748 269.537 396.561 267.708 396.937 265.752L419.384 148.857C419.72 147.11 419.7 145.299 419.326 143.526C418.951 141.753 418.23 140.054 417.202 138.526C416.174 136.997 414.86 135.67 413.336 134.619C411.811 133.568 410.106 132.814 408.317 132.401Z" fill="black"/>
<path d="M450.297 164.175C446.685 163.339 442.952 163.939 439.92 165.842C436.887 167.745 434.803 170.796 434.126 174.324L412.878 284.977L312.16 335.48C308.948 337.09 306.577 339.926 305.569 343.363C304.561 346.799 304.998 350.556 306.785 353.806C308.572 357.056 311.562 359.533 315.097 360.692C318.632 361.851 322.423 361.598 325.635 359.988L432.042 306.642C433.822 305.748 435.362 304.469 436.553 302.896C437.744 301.323 438.556 299.493 438.933 297.537L461.379 180.643C461.716 178.895 461.696 177.082 461.322 175.309C460.947 173.535 460.225 171.835 459.196 170.306C458.168 168.777 456.853 167.449 455.327 166.398C453.801 165.347 452.095 164.593 450.304 164.181L450.297 164.175Z" fill="black"/>
</g>
<rect x="112" y="172" width="408" height="61" fill="#43534D"/>
<path d="M149.105 184.92C152.113 184.92 154.737 185.512 156.977 186.696C159.217 187.88 160.945 189.64 162.161 191.976C163.409 194.28 164.033 197.08 164.033 200.376V219H157.793V210.36H140.321V219H134.177V200.376C134.177 197.08 134.785 194.28 136.001 191.976C137.249 189.64 138.993 187.88 141.233 186.696C143.473 185.512 146.097 184.92 149.105 184.92ZM157.793 205.128V199.8C157.793 196.696 157.025 194.36 155.489 192.792C153.953 191.192 151.809 190.392 149.057 190.392C146.305 190.392 144.161 191.192 142.625 192.792C141.089 194.36 140.321 196.696 140.321 199.8V205.128H157.793ZM177.898 197.112C179.626 194.424 182.666 193.08 187.018 193.08V198.792C186.506 198.696 186.042 198.648 185.626 198.648C183.29 198.648 181.466 199.336 180.154 200.712C178.842 202.056 178.186 204.008 178.186 206.568V219H172.186V193.368H177.898V197.112ZM217.314 193.368V215.112C217.314 224.136 212.706 228.648 203.49 228.648C201.026 228.648 198.69 228.328 196.482 227.688C194.274 227.08 192.45 226.184 191.01 225L193.698 220.488C194.818 221.416 196.226 222.152 197.922 222.696C199.65 223.272 201.394 223.56 203.154 223.56C205.97 223.56 208.034 222.92 209.346 221.64C210.658 220.36 211.314 218.408 211.314 215.784V214.44C210.29 215.56 209.042 216.408 207.57 216.984C206.098 217.56 204.482 217.848 202.722 217.848C200.29 217.848 198.082 217.336 196.098 216.312C194.146 215.256 192.594 213.784 191.442 211.896C190.322 210.008 189.762 207.848 189.762 205.416C189.762 202.984 190.322 200.84 191.442 198.984C192.594 197.096 194.146 195.64 196.098 194.616C198.082 193.592 200.29 193.08 202.722 193.08C204.578 193.08 206.258 193.384 207.762 193.992C209.298 194.6 210.578 195.528 211.602 196.776V193.368H217.314ZM203.634 212.76C205.906 212.76 207.762 212.088 209.202 210.744C210.674 209.368 211.41 207.592 211.41 205.416C211.41 203.272 210.674 201.528 209.202 200.184C207.762 198.84 205.906 198.168 203.634 198.168C201.33 198.168 199.442 198.84 197.97 200.184C196.53 201.528 195.81 203.272 195.81 205.416C195.81 207.592 196.53 209.368 197.97 210.744C199.442 212.088 201.33 212.76 203.634 212.76ZM237.394 214.248C240.178 214.248 242.498 213.32 244.354 211.464L247.522 215.16C246.402 216.536 244.962 217.576 243.202 218.28C241.442 218.984 239.458 219.336 237.25 219.336C234.434 219.336 231.954 218.776 229.81 217.656C227.666 216.536 226.002 214.984 224.818 213C223.666 210.984 223.09 208.712 223.09 206.184C223.09 203.688 223.65 201.448 224.77 199.464C225.922 197.448 227.49 195.88 229.474 194.76C231.49 193.64 233.762 193.08 236.29 193.08C238.69 193.08 240.866 193.608 242.818 194.664C244.802 195.688 246.37 197.176 247.522 199.128C248.674 201.048 249.25 203.304 249.25 205.896L229.618 209.736C230.226 211.208 231.202 212.328 232.546 213.096C233.89 213.864 235.506 214.248 237.394 214.248ZM236.29 197.88C234.082 197.88 232.29 198.6 230.914 200.04C229.57 201.48 228.898 203.416 228.898 205.848V205.896L243.394 203.112C242.978 201.544 242.13 200.28 240.85 199.32C239.602 198.36 238.082 197.88 236.29 197.88ZM269.558 193.08C272.79 193.08 275.382 194.024 277.334 195.912C279.286 197.8 280.262 200.6 280.262 204.312V219H274.262V205.08C274.262 202.84 273.734 201.16 272.678 200.04C271.622 198.888 270.118 198.312 268.166 198.312C265.958 198.312 264.214 198.984 262.934 200.328C261.654 201.64 261.014 203.544 261.014 206.04V219H255.014V193.368H260.726V196.68C261.718 195.496 262.966 194.6 264.47 193.992C265.974 193.384 267.67 193.08 269.558 193.08ZM302.274 217.608C301.57 218.184 300.706 218.616 299.682 218.904C298.69 219.192 297.634 219.336 296.514 219.336C293.698 219.336 291.522 218.6 289.986 217.128C288.45 215.656 287.682 213.512 287.682 210.696V187.704H293.682V193.56H300.546V198.36H293.682V210.552C293.682 211.8 293.986 212.76 294.594 213.432C295.234 214.072 296.114 214.392 297.234 214.392C298.578 214.392 299.698 214.04 300.594 213.336L302.274 217.608ZM321.075 185.4H335.763C339.347 185.4 342.531 186.104 345.315 187.512C348.099 188.888 350.259 190.856 351.795 193.416C353.331 195.944 354.099 198.872 354.099 202.2C354.099 205.528 353.331 208.472 351.795 211.032C350.259 213.56 348.099 215.528 345.315 216.936C342.531 218.312 339.347 219 335.763 219H321.075V185.4ZM335.475 213.72C337.939 213.72 340.099 213.256 341.955 212.328C343.843 211.368 345.283 210.024 346.275 208.296C347.299 206.536 347.811 204.504 347.811 202.2C347.811 199.896 347.299 197.88 346.275 196.152C345.283 194.392 343.843 193.048 341.955 192.12C340.099 191.16 337.939 190.68 335.475 190.68H327.315V213.72H335.475ZM372.347 214.248C375.131 214.248 377.451 213.32 379.307 211.464L382.475 215.16C381.355 216.536 379.915 217.576 378.155 218.28C376.395 218.984 374.411 219.336 372.203 219.336C369.387 219.336 366.907 218.776 364.763 217.656C362.619 216.536 360.955 214.984 359.771 213C358.619 210.984 358.043 208.712 358.043 206.184C358.043 203.688 358.603 201.448 359.723 199.464C360.875 197.448 362.443 195.88 364.427 194.76C366.443 193.64 368.715 193.08 371.243 193.08C373.643 193.08 375.819 193.608 377.771 194.664C379.755 195.688 381.323 197.176 382.475 199.128C383.627 201.048 384.203 203.304 384.203 205.896L364.571 209.736C365.179 211.208 366.155 212.328 367.499 213.096C368.843 213.864 370.459 214.248 372.347 214.248ZM371.243 197.88C369.035 197.88 367.243 198.6 365.867 200.04C364.523 201.48 363.851 203.416 363.851 205.848V205.896L378.347 203.112C377.931 201.544 377.083 200.28 375.803 199.32C374.555 198.36 373.035 197.88 371.243 197.88ZM420.513 184.92C424.545 184.92 427.681 186.152 429.921 188.616C432.193 191.08 433.329 194.6 433.329 199.176V219H427.089V199.416C427.089 196.44 426.369 194.2 424.929 192.696C423.521 191.16 421.553 190.392 419.025 190.392C416.273 190.392 414.081 191.208 412.449 192.84C410.849 194.44 410.049 196.84 410.049 200.04V219H403.809V185.4H409.857V189.624C412.193 186.488 415.745 184.92 420.513 184.92ZM441.483 193.368H447.483V219H441.483V193.368ZM444.507 189.144C443.419 189.144 442.507 188.808 441.771 188.136C441.035 187.432 440.667 186.568 440.667 185.544C440.667 184.52 441.035 183.672 441.771 183C442.507 182.296 443.419 181.944 444.507 181.944C445.595 181.944 446.507 182.28 447.243 182.952C447.979 183.592 448.347 184.408 448.347 185.4C448.347 186.456 447.979 187.352 447.243 188.088C446.539 188.792 445.627 189.144 444.507 189.144ZM461.07 197.112C462.798 194.424 465.838 193.08 470.19 193.08V198.792C469.678 198.696 469.214 198.648 468.798 198.648C466.462 198.648 464.638 199.336 463.326 200.712C462.014 202.056 461.358 204.008 461.358 206.568V219H455.358V193.368H461.07V197.112ZM486.565 219.336C483.973 219.336 481.637 218.776 479.557 217.656C477.477 216.536 475.845 214.984 474.661 213C473.509 210.984 472.933 208.712 472.933 206.184C472.933 203.656 473.509 201.4 474.661 199.416C475.845 197.432 477.477 195.88 479.557 194.76C481.637 193.64 483.973 193.08 486.565 193.08C489.189 193.08 491.541 193.64 493.621 194.76C495.701 195.88 497.317 197.432 498.469 199.416C499.653 201.4 500.245 203.656 500.245 206.184C500.245 208.712 499.653 210.984 498.469 213C497.317 214.984 495.701 216.536 493.621 217.656C491.541 218.776 489.189 219.336 486.565 219.336ZM486.565 214.2C488.773 214.2 490.597 213.464 492.037 211.992C493.477 210.52 494.197 208.584 494.197 206.184C494.197 203.784 493.477 201.848 492.037 200.376C490.597 198.904 488.773 198.168 486.565 198.168C484.357 198.168 482.533 198.904 481.093 200.376C479.685 201.848 478.981 203.784 478.981 206.184C478.981 208.584 479.685 210.52 481.093 211.992C482.533 213.464 484.357 214.2 486.565 214.2Z" fill="#FAFFFD"/>
</g>
<defs>
<clipPath id="clip0_70_407">
<rect width="632" height="384" fill="white"/>
</clipPath>
<clipPath id="clip1_70_407">
<rect width="286.345" height="300.852" fill="white" transform="translate(114 238.319) rotate(-52.8783)"/>
</clipPath>
</defs>
</svg>
