<svg width="566" height="490" viewBox="0 0 566 490" fill="none" xmlns="http://www.w3.org/2000/svg">
<path d="M527.5 235C527.5 273.431 499.84 308.528 454.455 334.102C409.115 359.651 346.379 375.5 277 375.5C207.621 375.5 144.885 359.651 99.5455 334.102C54.1597 308.528 26.5 273.431 26.5 235C26.5 196.569 54.1597 161.472 99.5455 135.898C144.885 110.349 207.621 94.5 277 94.5C346.379 94.5 409.115 110.349 454.455 135.898C499.84 161.472 527.5 196.569 527.5 235Z" stroke="white" stroke-width="3"/>
<g clip-path="url(#clip0_122_12)">
<path d="M275.228 110.267L144.112 160.374C141.918 161.213 140.02 162.414 138.552 163.892C137.085 165.37 136.084 167.088 135.621 168.926L107.962 278.723C107.361 281.096 107.681 283.581 108.885 285.887C110.088 288.193 112.125 290.224 114.757 291.743C117.389 293.261 120.507 294.204 123.745 294.461C126.983 294.718 130.208 294.278 133.041 293.192L264.157 243.085C266.351 242.246 268.248 241.045 269.716 239.567C271.183 238.089 272.184 236.371 272.648 234.534L300.307 124.737C300.903 122.364 300.58 119.881 299.375 117.577C298.17 115.273 296.133 113.243 293.503 111.726C290.873 110.208 287.757 109.265 284.521 109.007C281.285 108.749 278.062 109.186 275.228 110.267ZM240.552 222.741L148.242 258.027L167.717 180.718L260.027 145.432L240.562 222.747L240.552 222.741Z" fill="black"/>
<path d="M338.399 139.124C333.948 138.339 329.349 138.902 325.612 140.69C321.875 142.478 319.307 145.343 318.472 148.657L292.29 252.592L168.184 300.029C164.227 301.54 161.305 304.202 160.063 307.429C158.82 310.656 159.359 314.184 161.559 317.236C163.76 320.288 167.443 322.614 171.797 323.703C176.152 324.792 180.821 324.555 184.779 323.043L315.895 272.936C318.089 272.097 319.986 270.895 321.454 269.418C322.921 267.94 323.922 266.221 324.386 264.384L352.045 154.587C352.459 152.946 352.435 151.245 351.974 149.579C351.512 147.914 350.623 146.318 349.356 144.883C348.09 143.447 346.471 142.2 344.592 141.213C342.714 140.226 340.603 139.512 338.399 139.124Z" fill="black"/>
<path d="M390.128 168.969C385.677 168.184 381.078 168.747 377.341 170.535C373.604 172.323 371.036 175.188 370.202 178.502L344.01 282.431L219.904 329.868C215.947 331.38 213.025 334.042 211.783 337.269C210.54 340.496 211.079 344.024 213.279 347.076C215.48 350.127 219.163 352.454 223.517 353.543C227.872 354.632 232.541 354.394 236.499 352.883L367.615 302.776C369.809 301.936 371.706 300.735 373.174 299.257C374.641 297.779 375.642 296.061 376.106 294.224L403.765 184.427C404.179 182.786 404.155 181.084 403.694 179.419C403.232 177.754 402.343 176.158 401.076 174.722C399.81 173.287 398.191 172.04 396.313 171.053C394.434 170.066 392.332 169.358 390.128 168.969Z" fill="black"/>
<path d="M441.856 198.814C437.405 198.029 432.806 198.592 429.069 200.38C425.332 202.168 422.764 205.033 421.929 208.347L395.747 312.282L271.641 359.719C267.683 361.231 264.761 363.895 263.519 367.123C262.277 370.351 262.816 373.879 265.018 376.932C267.22 379.984 270.904 382.311 275.26 383.4C279.616 384.489 284.287 384.251 288.245 382.738L419.362 332.631C421.555 331.792 423.453 330.591 424.92 329.113C426.387 327.635 427.389 325.917 427.853 324.08L455.511 214.283C455.926 212.641 455.903 210.938 455.441 209.272C454.98 207.606 454.09 206.009 452.822 204.573C451.555 203.137 449.934 201.889 448.054 200.902C446.174 199.915 444.071 199.207 441.865 198.82L441.856 198.814Z" fill="black"/>
</g>
<rect x="25" y="206" width="504" height="58" fill="#43534D"/>
<path d="M109.105 218.92C112.113 218.92 114.737 219.512 116.977 220.696C119.217 221.88 120.945 223.64 122.161 225.976C123.409 228.28 124.033 231.08 124.033 234.376V253H117.793V244.36H100.321V253H94.1771V234.376C94.1771 231.08 94.7851 228.28 96.0011 225.976C97.2491 223.64 98.9931 221.88 101.233 220.696C103.473 219.512 106.097 218.92 109.105 218.92ZM117.793 239.128V233.8C117.793 230.696 117.025 228.36 115.489 226.792C113.953 225.192 111.809 224.392 109.057 224.392C106.305 224.392 104.161 225.192 102.625 226.792C101.089 228.36 100.321 230.696 100.321 233.8V239.128H117.793ZM137.898 231.112C139.626 228.424 142.666 227.08 147.018 227.08V232.792C146.506 232.696 146.042 232.648 145.626 232.648C143.29 232.648 141.466 233.336 140.154 234.712C138.842 236.056 138.186 238.008 138.186 240.568V253H132.186V227.368H137.898V231.112ZM177.314 227.368V249.112C177.314 258.136 172.706 262.648 163.49 262.648C161.026 262.648 158.69 262.328 156.482 261.688C154.274 261.08 152.45 260.184 151.01 259L153.698 254.488C154.818 255.416 156.226 256.152 157.922 256.696C159.65 257.272 161.394 257.56 163.154 257.56C165.97 257.56 168.034 256.92 169.346 255.64C170.658 254.36 171.314 252.408 171.314 249.784V248.44C170.29 249.56 169.042 250.408 167.57 250.984C166.098 251.56 164.482 251.848 162.722 251.848C160.29 251.848 158.082 251.336 156.098 250.312C154.146 249.256 152.594 247.784 151.442 245.896C150.322 244.008 149.762 241.848 149.762 239.416C149.762 236.984 150.322 234.84 151.442 232.984C152.594 231.096 154.146 229.64 156.098 228.616C158.082 227.592 160.29 227.08 162.722 227.08C164.578 227.08 166.258 227.384 167.762 227.992C169.298 228.6 170.578 229.528 171.602 230.776V227.368H177.314ZM163.634 246.76C165.906 246.76 167.762 246.088 169.202 244.744C170.674 243.368 171.41 241.592 171.41 239.416C171.41 237.272 170.674 235.528 169.202 234.184C167.762 232.84 165.906 232.168 163.634 232.168C161.33 232.168 159.442 232.84 157.97 234.184C156.53 235.528 155.81 237.272 155.81 239.416C155.81 241.592 156.53 243.368 157.97 244.744C159.442 246.088 161.33 246.76 163.634 246.76ZM197.394 248.248C200.178 248.248 202.498 247.32 204.354 245.464L207.522 249.16C206.402 250.536 204.962 251.576 203.202 252.28C201.442 252.984 199.458 253.336 197.25 253.336C194.434 253.336 191.954 252.776 189.81 251.656C187.666 250.536 186.002 248.984 184.818 247C183.666 244.984 183.09 242.712 183.09 240.184C183.09 237.688 183.65 235.448 184.77 233.464C185.922 231.448 187.49 229.88 189.474 228.76C191.49 227.64 193.762 227.08 196.29 227.08C198.69 227.08 200.866 227.608 202.818 228.664C204.802 229.688 206.37 231.176 207.522 233.128C208.674 235.048 209.25 237.304 209.25 239.896L189.618 243.736C190.226 245.208 191.202 246.328 192.546 247.096C193.89 247.864 195.506 248.248 197.394 248.248ZM196.29 231.88C194.082 231.88 192.29 232.6 190.914 234.04C189.57 235.48 188.898 237.416 188.898 239.848V239.896L203.394 237.112C202.978 235.544 202.13 234.28 200.85 233.32C199.602 232.36 198.082 231.88 196.29 231.88ZM229.558 227.08C232.79 227.08 235.382 228.024 237.334 229.912C239.286 231.8 240.262 234.6 240.262 238.312V253H234.262V239.08C234.262 236.84 233.734 235.16 232.678 234.04C231.622 232.888 230.118 232.312 228.166 232.312C225.958 232.312 224.214 232.984 222.934 234.328C221.654 235.64 221.014 237.544 221.014 240.04V253H215.014V227.368H220.726V230.68C221.718 229.496 222.966 228.6 224.47 227.992C225.974 227.384 227.67 227.08 229.558 227.08ZM262.274 251.608C261.57 252.184 260.706 252.616 259.682 252.904C258.69 253.192 257.634 253.336 256.514 253.336C253.698 253.336 251.522 252.6 249.986 251.128C248.45 249.656 247.682 247.512 247.682 244.696V221.704H253.682V227.56H260.546V232.36H253.682V244.552C253.682 245.8 253.986 246.76 254.594 247.432C255.234 248.072 256.114 248.392 257.234 248.392C258.578 248.392 259.698 248.04 260.594 247.336L262.274 251.608ZM281.075 219.4H295.763C299.347 219.4 302.531 220.104 305.315 221.512C308.099 222.888 310.259 224.856 311.795 227.416C313.331 229.944 314.099 232.872 314.099 236.2C314.099 239.528 313.331 242.472 311.795 245.032C310.259 247.56 308.099 249.528 305.315 250.936C302.531 252.312 299.347 253 295.763 253H281.075V219.4ZM295.475 247.72C297.939 247.72 300.099 247.256 301.955 246.328C303.843 245.368 305.283 244.024 306.275 242.296C307.299 240.536 307.811 238.504 307.811 236.2C307.811 233.896 307.299 231.88 306.275 230.152C305.283 228.392 303.843 227.048 301.955 226.12C300.099 225.16 297.939 224.68 295.475 224.68H287.315V247.72H295.475ZM332.347 248.248C335.131 248.248 337.451 247.32 339.307 245.464L342.475 249.16C341.355 250.536 339.915 251.576 338.155 252.28C336.395 252.984 334.411 253.336 332.203 253.336C329.387 253.336 326.907 252.776 324.763 251.656C322.619 250.536 320.955 248.984 319.771 247C318.619 244.984 318.043 242.712 318.043 240.184C318.043 237.688 318.603 235.448 319.723 233.464C320.875 231.448 322.443 229.88 324.427 228.76C326.443 227.64 328.715 227.08 331.243 227.08C333.643 227.08 335.819 227.608 337.771 228.664C339.755 229.688 341.323 231.176 342.475 233.128C343.627 235.048 344.203 237.304 344.203 239.896L324.571 243.736C325.179 245.208 326.155 246.328 327.499 247.096C328.843 247.864 330.459 248.248 332.347 248.248ZM331.243 231.88C329.035 231.88 327.243 232.6 325.867 234.04C324.523 235.48 323.851 237.416 323.851 239.848V239.896L338.347 237.112C337.931 235.544 337.083 234.28 335.803 233.32C334.555 232.36 333.035 231.88 331.243 231.88ZM380.513 218.92C384.545 218.92 387.681 220.152 389.921 222.616C392.193 225.08 393.329 228.6 393.329 233.176V253H387.089V233.416C387.089 230.44 386.369 228.2 384.929 226.696C383.521 225.16 381.553 224.392 379.025 224.392C376.273 224.392 374.081 225.208 372.449 226.84C370.849 228.44 370.049 230.84 370.049 234.04V253H363.809V219.4H369.857V223.624C372.193 220.488 375.745 218.92 380.513 218.92ZM401.483 227.368H407.483V253H401.483V227.368ZM404.507 223.144C403.419 223.144 402.507 222.808 401.771 222.136C401.035 221.432 400.667 220.568 400.667 219.544C400.667 218.52 401.035 217.672 401.771 217C402.507 216.296 403.419 215.944 404.507 215.944C405.595 215.944 406.507 216.28 407.243 216.952C407.979 217.592 408.347 218.408 408.347 219.4C408.347 220.456 407.979 221.352 407.243 222.088C406.539 222.792 405.627 223.144 404.507 223.144ZM421.07 231.112C422.798 228.424 425.838 227.08 430.19 227.08V232.792C429.678 232.696 429.214 232.648 428.798 232.648C426.462 232.648 424.638 233.336 423.326 234.712C422.014 236.056 421.358 238.008 421.358 240.568V253H415.358V227.368H421.07V231.112ZM446.565 253.336C443.973 253.336 441.637 252.776 439.557 251.656C437.477 250.536 435.845 248.984 434.661 247C433.509 244.984 432.933 242.712 432.933 240.184C432.933 237.656 433.509 235.4 434.661 233.416C435.845 231.432 437.477 229.88 439.557 228.76C441.637 227.64 443.973 227.08 446.565 227.08C449.189 227.08 451.541 227.64 453.621 228.76C455.701 229.88 457.317 231.432 458.469 233.416C459.653 235.4 460.245 237.656 460.245 240.184C460.245 242.712 459.653 244.984 458.469 247C457.317 248.984 455.701 250.536 453.621 251.656C451.541 252.776 449.189 253.336 446.565 253.336ZM446.565 248.2C448.773 248.2 450.597 247.464 452.037 245.992C453.477 244.52 454.197 242.584 454.197 240.184C454.197 237.784 453.477 235.848 452.037 234.376C450.597 232.904 448.773 232.168 446.565 232.168C444.357 232.168 442.533 232.904 441.093 234.376C439.685 235.848 438.981 237.784 438.981 240.184C438.981 242.584 439.685 244.52 441.093 245.992C442.533 247.464 444.357 248.2 446.565 248.2Z" fill="#FAFFFD"/>
<defs>
<clipPath id="clip0_122_12">
<rect width="302.219" height="341.262" fill="white" transform="matrix(0.704597 -0.709608 0.866174 0.499743 27.4648 268.457)"/>
</clipPath>
</defs>
</svg>
