<svg width="454" height="384" viewBox="0 0 454 384" fill="none" xmlns="http://www.w3.org/2000/svg">
<path d="M421.5 184C421.5 211.312 399.869 236.42 364.03 254.79C328.271 273.119 278.765 284.5 224 284.5C169.235 284.5 119.729 273.119 83.97 254.79C48.131 236.42 26.5 211.312 26.5 184C26.5 156.688 48.131 131.58 83.97 113.21C119.729 94.881 169.235 83.5 224 83.5C278.765 83.5 328.271 94.881 364.03 113.21C399.869 131.58 421.5 156.688 421.5 184Z" stroke="white" stroke-width="3"/>
<g clip-path="url(#clip0_122_12)">
<path d="M222.832 94.4664L119.171 130.503C117.437 131.106 115.936 131.97 114.776 133.032C113.616 134.095 112.824 135.331 112.458 136.653L90.5906 215.617C90.1157 217.324 90.3688 219.111 91.3202 220.77C92.2717 222.428 93.8822 223.889 95.963 224.981C98.0438 226.073 100.509 226.751 103.069 226.936C105.629 227.12 108.178 226.804 110.418 226.023L214.08 189.987C215.814 189.384 217.314 188.52 218.474 187.457C219.635 186.394 220.426 185.158 220.793 183.837L242.66 104.873C243.131 103.166 242.876 101.38 241.923 99.7233C240.97 98.0663 239.36 96.6068 237.281 95.5154C235.201 94.424 232.738 93.7458 230.18 93.56C227.621 93.3743 225.073 93.6886 222.832 94.4664ZM195.418 175.356L122.436 200.733L137.833 145.134L210.815 119.757L195.425 175.36L195.418 175.356Z" fill="black"/>
<path d="M272.775 115.22C269.257 114.655 265.62 115.06 262.666 116.346C259.712 117.632 257.681 119.693 257.021 122.076L236.322 196.824L138.203 230.94C135.074 232.027 132.764 233.942 131.782 236.263C130.8 238.583 131.225 241.12 132.965 243.315C134.705 245.51 137.616 247.183 141.059 247.966C144.502 248.749 148.194 248.579 151.323 247.491L254.984 211.455C256.718 210.852 258.218 209.988 259.379 208.925C260.539 207.862 261.33 206.626 261.697 205.305L283.564 126.341C283.892 125.161 283.873 123.937 283.508 122.739C283.143 121.542 282.44 120.394 281.439 119.361C280.437 118.329 279.157 117.432 277.672 116.722C276.187 116.012 274.518 115.499 272.775 115.22Z" fill="black"/>
<path d="M313.673 136.684C310.154 136.119 306.518 136.525 303.563 137.81C300.609 139.096 298.579 141.157 297.919 143.54L277.212 218.284L179.092 252.4C175.964 253.487 173.654 255.402 172.672 257.723C171.689 260.044 172.115 262.58 173.855 264.775C175.595 266.97 178.506 268.643 181.949 269.426C185.392 270.21 189.083 270.039 192.212 268.952L295.874 232.915C297.608 232.312 299.108 231.448 300.268 230.385C301.429 229.322 302.22 228.086 302.587 226.765L324.454 147.801C324.782 146.621 324.762 145.397 324.398 144.199C324.033 143.002 323.33 141.854 322.328 140.822C321.327 139.789 320.047 138.892 318.562 138.182C317.077 137.472 315.415 136.963 313.673 136.684Z" fill="black"/>
<path d="M354.57 158.148C351.051 157.584 347.415 157.989 344.46 159.274C341.506 160.56 339.476 162.621 338.816 165.004L318.116 239.752L219.997 273.868C216.867 274.956 214.558 276.871 213.575 279.193C212.593 281.515 213.02 284.052 214.76 286.248C216.501 288.443 219.414 290.116 222.858 290.899C226.302 291.683 229.995 291.511 233.124 290.423L336.786 254.387C338.52 253.784 340.02 252.92 341.18 251.857C342.34 250.794 343.132 249.558 343.499 248.237L365.366 169.273C365.694 168.092 365.675 166.868 365.31 165.669C364.946 164.471 364.242 163.323 363.24 162.29C362.238 161.257 360.957 160.36 359.47 159.65C357.984 158.94 356.321 158.431 354.577 158.152L354.57 158.148Z" fill="black"/>
</g>
<rect x="25" y="163" width="398" height="42" fill="#43534D"/>
<path d="M57.1051 175.92C60.1131 175.92 62.7371 176.512 64.9771 177.696C67.2171 178.88 68.9451 180.64 70.1611 182.976C71.4091 185.28 72.0331 188.08 72.0331 191.376V210H65.7931V201.36H48.3211V210H42.1771V191.376C42.1771 188.08 42.7851 185.28 44.0011 182.976C45.2491 180.64 46.9931 178.88 49.2331 177.696C51.4731 176.512 54.0971 175.92 57.1051 175.92ZM65.7931 196.128V190.8C65.7931 187.696 65.0251 185.36 63.4891 183.792C61.9531 182.192 59.8091 181.392 57.0571 181.392C54.3051 181.392 52.1611 182.192 50.6251 183.792C49.0891 185.36 48.3211 187.696 48.3211 190.8V196.128H65.7931ZM85.898 188.112C87.626 185.424 90.666 184.08 95.018 184.08V189.792C94.506 189.696 94.042 189.648 93.626 189.648C91.29 189.648 89.466 190.336 88.154 191.712C86.842 193.056 86.186 195.008 86.186 197.568V210H80.186V184.368H85.898V188.112ZM125.314 184.368V206.112C125.314 215.136 120.706 219.648 111.49 219.648C109.026 219.648 106.69 219.328 104.482 218.688C102.274 218.08 100.45 217.184 99.0095 216L101.698 211.488C102.818 212.416 104.226 213.152 105.922 213.696C107.65 214.272 109.394 214.56 111.154 214.56C113.97 214.56 116.034 213.92 117.346 212.64C118.658 211.36 119.314 209.408 119.314 206.784V205.44C118.29 206.56 117.042 207.408 115.57 207.984C114.098 208.56 112.482 208.848 110.722 208.848C108.29 208.848 106.082 208.336 104.098 207.312C102.146 206.256 100.594 204.784 99.4415 202.896C98.3215 201.008 97.7615 198.848 97.7615 196.416C97.7615 193.984 98.3215 191.84 99.4415 189.984C100.594 188.096 102.146 186.64 104.098 185.616C106.082 184.592 108.29 184.08 110.722 184.08C112.578 184.08 114.258 184.384 115.762 184.992C117.298 185.6 118.578 186.528 119.602 187.776V184.368H125.314ZM111.634 203.76C113.906 203.76 115.762 203.088 117.202 201.744C118.674 200.368 119.41 198.592 119.41 196.416C119.41 194.272 118.674 192.528 117.202 191.184C115.762 189.84 113.906 189.168 111.634 189.168C109.33 189.168 107.442 189.84 105.97 191.184C104.53 192.528 103.81 194.272 103.81 196.416C103.81 198.592 104.53 200.368 105.97 201.744C107.442 203.088 109.33 203.76 111.634 203.76ZM145.394 205.248C148.178 205.248 150.498 204.32 152.354 202.464L155.522 206.16C154.402 207.536 152.962 208.576 151.202 209.28C149.442 209.984 147.458 210.336 145.25 210.336C142.434 210.336 139.954 209.776 137.81 208.656C135.666 207.536 134.002 205.984 132.818 204C131.666 201.984 131.09 199.712 131.09 197.184C131.09 194.688 131.65 192.448 132.77 190.464C133.922 188.448 135.49 186.88 137.474 185.76C139.49 184.64 141.762 184.08 144.29 184.08C146.69 184.08 148.866 184.608 150.818 185.664C152.802 186.688 154.37 188.176 155.522 190.128C156.674 192.048 157.25 194.304 157.25 196.896L137.618 200.736C138.226 202.208 139.202 203.328 140.546 204.096C141.89 204.864 143.506 205.248 145.394 205.248ZM144.29 188.88C142.082 188.88 140.29 189.6 138.914 191.04C137.57 192.48 136.898 194.416 136.898 196.848V196.896L151.394 194.112C150.978 192.544 150.13 191.28 148.85 190.32C147.602 189.36 146.082 188.88 144.29 188.88ZM177.558 184.08C180.79 184.08 183.382 185.024 185.334 186.912C187.286 188.8 188.262 191.6 188.262 195.312V210H182.262V196.08C182.262 193.84 181.734 192.16 180.678 191.04C179.622 189.888 178.118 189.312 176.166 189.312C173.958 189.312 172.214 189.984 170.934 191.328C169.654 192.64 169.014 194.544 169.014 197.04V210H163.014V184.368H168.726V187.68C169.718 186.496 170.966 185.6 172.47 184.992C173.974 184.384 175.67 184.08 177.558 184.08ZM210.274 208.608C209.57 209.184 208.706 209.616 207.682 209.904C206.69 210.192 205.634 210.336 204.514 210.336C201.698 210.336 199.522 209.6 197.986 208.128C196.45 206.656 195.682 204.512 195.682 201.696V178.704H201.682V184.56H208.546V189.36H201.682V201.552C201.682 202.8 201.986 203.76 202.594 204.432C203.234 205.072 204.114 205.392 205.234 205.392C206.578 205.392 207.698 205.04 208.594 204.336L210.274 208.608ZM229.075 176.4H243.763C247.347 176.4 250.531 177.104 253.315 178.512C256.099 179.888 258.259 181.856 259.795 184.416C261.331 186.944 262.099 189.872 262.099 193.2C262.099 196.528 261.331 199.472 259.795 202.032C258.259 204.56 256.099 206.528 253.315 207.936C250.531 209.312 247.347 210 243.763 210H229.075V176.4ZM243.475 204.72C245.939 204.72 248.099 204.256 249.955 203.328C251.843 202.368 253.283 201.024 254.275 199.296C255.299 197.536 255.811 195.504 255.811 193.2C255.811 190.896 255.299 188.88 254.275 187.152C253.283 185.392 251.843 184.048 249.955 183.12C248.099 182.16 245.939 181.68 243.475 181.68H235.315V204.72H243.475ZM280.347 205.248C283.131 205.248 285.451 204.32 287.307 202.464L290.475 206.16C289.355 207.536 287.915 208.576 286.155 209.28C284.395 209.984 282.411 210.336 280.203 210.336C277.387 210.336 274.907 209.776 272.763 208.656C270.619 207.536 268.955 205.984 267.771 204C266.619 201.984 266.043 199.712 266.043 197.184C266.043 194.688 266.603 192.448 267.723 190.464C268.875 188.448 270.443 186.88 272.427 185.76C274.443 184.64 276.715 184.08 279.243 184.08C281.643 184.08 283.819 184.608 285.771 185.664C287.755 186.688 289.323 188.176 290.475 190.128C291.627 192.048 292.203 194.304 292.203 196.896L272.571 200.736C273.179 202.208 274.155 203.328 275.499 204.096C276.843 204.864 278.459 205.248 280.347 205.248ZM279.243 188.88C277.035 188.88 275.243 189.6 273.867 191.04C272.523 192.48 271.851 194.416 271.851 196.848V196.896L286.347 194.112C285.931 192.544 285.083 191.28 283.803 190.32C282.555 189.36 281.035 188.88 279.243 188.88ZM328.513 175.92C332.545 175.92 335.681 177.152 337.921 179.616C340.193 182.08 341.329 185.6 341.329 190.176V210H335.089V190.416C335.089 187.44 334.369 185.2 332.929 183.696C331.521 182.16 329.553 181.392 327.025 181.392C324.273 181.392 322.081 182.208 320.449 183.84C318.849 185.44 318.049 187.84 318.049 191.04V210H311.809V176.4H317.857V180.624C320.193 177.488 323.745 175.92 328.513 175.92ZM349.483 184.368H355.483V210H349.483V184.368ZM352.507 180.144C351.419 180.144 350.507 179.808 349.771 179.136C349.035 178.432 348.667 177.568 348.667 176.544C348.667 175.52 349.035 174.672 349.771 174C350.507 173.296 351.419 172.944 352.507 172.944C353.595 172.944 354.507 173.28 355.243 173.952C355.979 174.592 356.347 175.408 356.347 176.4C356.347 177.456 355.979 178.352 355.243 179.088C354.539 179.792 353.627 180.144 352.507 180.144ZM369.07 188.112C370.798 185.424 373.838 184.08 378.19 184.08V189.792C377.678 189.696 377.214 189.648 376.798 189.648C374.462 189.648 372.638 190.336 371.326 191.712C370.014 193.056 369.358 195.008 369.358 197.568V210H363.358V184.368H369.07V188.112ZM394.565 210.336C391.973 210.336 389.637 209.776 387.557 208.656C385.477 207.536 383.845 205.984 382.661 204C381.509 201.984 380.933 199.712 380.933 197.184C380.933 194.656 381.509 192.4 382.661 190.416C383.845 188.432 385.477 186.88 387.557 185.76C389.637 184.64 391.973 184.08 394.565 184.08C397.189 184.08 399.541 184.64 401.621 185.76C403.701 186.88 405.317 188.432 406.469 190.416C407.653 192.4 408.245 194.656 408.245 197.184C408.245 199.712 407.653 201.984 406.469 204C405.317 205.984 403.701 207.536 401.621 208.656C399.541 209.776 397.189 210.336 394.565 210.336ZM394.565 205.2C396.773 205.2 398.597 204.464 400.037 202.992C401.477 201.52 402.197 199.584 402.197 197.184C402.197 194.784 401.477 192.848 400.037 191.376C398.597 189.904 396.773 189.168 394.565 189.168C392.357 189.168 390.533 189.904 389.093 191.376C387.685 192.848 386.981 194.784 386.981 197.184C386.981 199.584 387.685 201.52 389.093 202.992C390.533 204.464 392.357 205.2 394.565 205.2Z" fill="#FAFFFD"/>
<defs>
<clipPath id="clip0_122_12">
<rect width="228.322" height="263.928" fill="white" transform="matrix(0.737351 -0.67551 0.885459 0.464718 26.9492 208.234)"/>
</clipPath>
</defs>
</svg>
